<svg xmlns="http://www.w3.org/2000/svg" xml:space="preserve" viewBox="0 0 15.934 42.755"><g fill="#c0292a"><path stroke-width="9.684" d="M2.37 10.67h.484c.215 0 .388.173.388.387v31.316a.386.386 0 0 1-.388.388H2.37a.386.386 0 0 1-.387-.388V11.057c0-.214.172-.387.387-.387z"/><path stroke-width=".039" d="m12.5 20.31-.694 1.04c.073.552.112 1.11.112 1.675 0 4.3-4.92 7.746-8.676 10.032h-.62v9.683h.62c0-7.863 10.342-11.853 10.342-19.716 0-.783-.068-1.562-.185-2.332zM8.37 4.26a9.532 9.532 0 0 0-1.903.762l-.144.32c-1.125 2.51-2.513 3.194-3.85 3.97l-.175.105a4.704 4.704 0 0 0-.312 1.637c0 2.053 1.627 3.448 4.183 3.448 4.067 0 8.444-3.641 8.444-7.089 0-.662-.17-1.255-.485-1.755l-.209-.012c-2.435-.137-3.689-.29-5.236-1.203z"/><path d="M13.06 0c-.828 1.659-1.959 3.13-3.73 4.135 1.215.634 2.35.833 4.322.951-.058-2.208-.166-3.67-.592-5.086zM.003 3.896c.481 1.853 1.12 3.398 2.402 4.825 1.17-.67 2.22-1.366 3.172-3.221-2.443.156-4.1-.652-5.574-1.604zM10.81 14.53l-.717 8.426 2.207-3.309 3.635 1.547z"/></g></svg>
